<?xml version="1.0" standalone="no"?>
<!DOCTYPE svg PUBLIC "-//W3C//DTD SVG 20010904//EN"
 "http://www.w3.org/TR/2001/REC-SVG-20010904/DTD/svg10.dtd">
<svg version="1.0" xmlns="http://www.w3.org/2000/svg"
 width="247.000000pt" height="247.000000pt" viewBox="0 0 247.000000 247.000000"
 preserveAspectRatio="xMidYMid meet">
<metadata>
Created by potrace 1.14, written by Peter Selinger 2001-2017
</metadata>
<g transform="translate(0.000000,247.000000) scale(0.100000,-0.100000)"
fill="#000000" stroke="none">
<path d="M1038 2454 c-155 -24 -372 -108 -498 -194 -96 -65 -190 -150 -263
-238 -37 -44 -67 -82 -67 -85 0 -4 -14 -26 -31 -51 -68 -101 -132 -263 -164
-414 -23 -112 -21 -377 5 -492 28 -126 75 -265 110 -329 17 -30 30 -58 30 -64
0 -5 24 -37 54 -70 29 -34 60 -74 67 -88 35 -65 257 -233 403 -304 208 -102
343 -130 591 -122 208 6 314 31 484 112 265 127 446 306 579 571 79 156 132
378 132 547 0 166 -44 362 -116 517 -56 118 -91 175 -173 273 -271 330 -717
498 -1143 431z m200 -87 l22 -23 -24 -23 -23 -22 -34 28 c-63 51 -64 63 -6 63
33 0 49 -6 65 -23z m22 7 c0 -14 -3 -14 -15 -4 -8 7 -15 14 -15 16 0 2 7 4 15
4 8 0 15 -7 15 -16z m241 -18 c184 -46 337 -126 487 -256 45 -39 82 -74 82
-78 0 -4 12 -20 28 -37 15 -16 34 -39 42 -51 102 -149 161 -275 202 -433 27
-105 31 -132 32 -281 1 -173 -5 -219 -50 -362 -20 -61 -28 -76 -40 -71 -14 5
-15 0 -10 -28 6 -32 6 -33 -8 -15 -9 10 -13 23 -10 27 3 5 -8 9 -24 9 -32 0
-57 -36 -41 -61 5 -8 9 -9 9 -4 0 6 5 3 10 -5 6 -10 8 -2 4 25 l-6 40 16 -29
c28 -51 13 -130 -23 -118 -10 3 -12 -1 -8 -17 3 -11 2 -21 -3 -21 -12 0 -20
28 -14 45 4 10 0 15 -14 15 -12 0 -25 7 -30 16 -11 20 -141 27 -160 7 -15 -15
-14 -104 2 -115 6 -4 22 -8 36 -8 14 0 31 -9 38 -20 9 -15 19 -18 41 -14 37 8
44 -5 20 -35 -10 -13 -19 -19 -19 -15 0 5 -5 2 -10 -6 -8 -12 -12 -11 -30 8
-22 24 -70 30 -71 10 0 -7 -4 -4 -9 7 -8 18 -9 17 -9 -7 -1 -17 4 -28 12 -28
8 0 20 -11 27 -25 7 -14 17 -25 22 -25 5 0 6 -4 3 -10 -3 -5 -14 -10 -23 -10
-10 0 -22 -10 -27 -22 -13 -28 -123 -103 -228 -155 -86 -42 -215 -89 -223 -80
-3 3 11 17 30 32 20 15 36 31 36 36 0 22 -34 5 -79 -40 -41 -40 -57 -49 -97
-55 -27 -4 -66 -9 -86 -12 -33 -5 -39 -3 -47 18 -11 31 -6 42 29 55 20 7 36
24 45 46 9 23 30 44 62 62 68 41 153 108 153 123 0 20 -14 14 -59 -24 -47 -41
-57 -41 -36 -1 13 25 12 28 -9 42 -12 8 -42 18 -67 21 -41 6 -48 3 -104 -39
-78 -58 -134 -81 -180 -73 -60 12 -70 69 -19 102 22 15 26 15 49 0 29 -19 31
-33 9 -57 -26 -28 -6 -44 22 -18 31 29 30 54 -3 85 l-27 25 54 51 c72 66 146
108 190 108 30 0 44 -9 95 -63 33 -34 87 -78 120 -97 33 -19 88 -63 123 -98
34 -34 62 -55 62 -47 0 8 5 15 11 15 5 0 8 4 4 10 -3 5 -12 7 -19 4 -17 -6
-30 25 -17 40 6 7 6 18 1 26 -7 11 -11 11 -23 1 -13 -10 -26 -4 -77 33 -34 25
-70 46 -79 46 -16 0 -49 29 -65 58 -4 7 5 28 22 50 40 52 55 94 50 144 -4 34
0 50 20 75 13 18 22 39 20 48 -2 10 -18 -3 -47 -41 -68 -88 -88 -93 -333 -96
-112 -1 -211 3 -219 8 -19 12 -72 12 -81 0 -4 -7 -16 -2 -31 12 -27 26 -51 28
-90 7 -25 -13 -41 -13 -135 0 -99 14 -118 20 -247 85 -343 171 -365 186 -373
255 l-5 48 51 -7 c28 -3 104 -24 169 -46 171 -56 262 -80 309 -80 22 0 85 -7
140 -15 121 -18 459 -45 569 -45 44 0 108 6 142 13 97 21 118 40 217 194 l21
32 13 -25 c20 -38 4 -67 -86 -161 -116 -121 -101 -115 -325 -119 -205 -4 -357
7 -447 31 -30 9 -113 20 -185 24 -116 8 -146 15 -275 58 -80 26 -162 59 -183
72 -26 16 -42 20 -49 13 -15 -15 67 -67 133 -85 30 -9 94 -30 143 -47 71 -25
114 -33 215 -41 69 -5 153 -16 185 -24 98 -26 260 -37 466 -33 211 4 216 5
284 66 28 24 41 31 46 22 14 -22 32 -2 19 21 -12 22 -13 20 54 97 25 29 37 52
37 72 0 31 -31 104 -50 115 -6 4 -17 22 -25 42 -8 19 -28 52 -45 73 -29 36
-29 39 -14 69 8 17 19 33 24 36 18 11 38 113 38 194 0 49 6 94 13 108 12 22
10 27 -33 66 -25 23 -58 51 -73 63 -35 25 -26 44 18 44 18 0 42 7 54 15 11 8
40 17 64 21 72 10 271 114 220 114 -6 0 -11 15 -11 34 0 30 -5 37 -43 55 -54
26 -87 26 -138 1 -27 -14 -82 -25 -177 -35 -75 -8 -145 -15 -154 -15 -12 0
-33 32 -68 103 -27 57 -50 111 -50 120 0 9 -4 19 -10 22 -5 3 -10 11 -10 17 0
15 116 2 231 -26z m-448 12 c-5 -7 -19 -31 -32 -52 l-25 -39 -23 29 c-33 41
-29 51 25 62 65 13 64 13 55 0z m96 -32 c24 -24 40 -49 37 -55 -7 -11 -176
-16 -176 -5 0 24 65 104 85 104 6 0 30 -20 54 -44z m-191 -25 c22 -39 22 -40
2 -46 -26 -8 -179 5 -186 16 -8 13 108 66 152 68 6 1 20 -17 32 -38z m365 -82
c27 -55 46 -103 43 -106 -7 -8 -664 -25 -797 -21 l-104 3 70 53 c39 29 97 66
131 83 59 29 62 30 140 20 43 -5 147 -7 230 -4 l152 6 38 33 c22 18 41 33 44
34 3 0 27 -45 53 -101z m545 -69 c39 -18 42 -22 42 -60 0 -42 -9 -50 -30 -25
-16 20 -27 19 -57 -5 -36 -28 -54 -25 -84 12 l-26 32 -49 -33 c-65 -42 -96
-38 -120 17 -1 2 -19 -8 -39 -23 -21 -14 -42 -25 -47 -25 -6 0 -24 -11 -40
-26 l-31 -25 -27 26 c-30 29 -43 26 -122 -22 -53 -32 -81 -29 -120 12 l-33 35
-52 -34 c-28 -19 -62 -43 -74 -55 -33 -30 -65 -26 -106 14 -20 19 -37 35 -39
35 -1 0 -25 -16 -54 -35 -29 -19 -60 -35 -69 -35 -10 0 -32 21 -51 46 l-32 46
-42 -41 c-23 -23 -47 -41 -53 -41 -6 0 -22 17 -34 38 -12 20 -24 39 -26 41 -2
3 -21 -6 -44 -18 -22 -13 -42 -21 -45 -18 -3 2 15 24 38 48 l43 43 200 2 c279
2 759 20 890 33 147 15 174 20 215 42 45 23 65 23 118 -1z m-138 -95 c19 -35
50 -40 92 -15 25 14 38 17 43 10 4 -6 5 -13 4 -15 -11 -9 -120 -55 -133 -55
-9 0 -39 -9 -68 -20 -29 -11 -62 -20 -73 -20 -11 0 -65 -17 -120 -36 -102 -36
-198 -61 -270 -70 -59 -7 -864 -4 -908 4 l-39 7 31 41 c19 27 53 54 94 76 l64
34 19 -35 c26 -49 53 -51 103 -6 l40 36 23 -40 c19 -34 28 -41 54 -41 18 0 49
13 75 30 24 16 47 30 51 30 3 0 20 -13 36 -30 18 -18 41 -30 56 -30 28 0 76
19 76 31 0 4 23 22 52 39 l52 32 22 -25 c45 -52 59 -53 145 -10 l78 40 22 -23
c29 -30 40 -30 79 2 17 15 48 35 68 45 32 17 37 17 45 3 16 -29 49 -33 91 -12
22 11 46 27 54 34 19 20 27 18 42 -11z m-116 -235 c25 -18 46 -35 46 -37 0 -1
-19 7 -41 19 -33 17 -66 23 -158 27 l-116 6 48 15 c73 24 162 12 221 -30z
m-1319 -9 c18 -7 17 -8 -7 -14 -15 -4 -40 -19 -57 -33 -36 -30 -39 -23 -11 24
20 32 37 37 75 23z m960 -8 c-49 -26 -105 -74 -105 -89 0 -20 8 -18 46 16 79
69 154 86 303 71 108 -12 136 -26 145 -76 11 -54 -3 -61 -35 -17 -37 51 -70
62 -184 62 -90 0 -95 -1 -146 -36 -29 -19 -59 -44 -66 -54 -7 -10 -33 -42 -58
-71 -49 -57 -67 -103 -53 -131 12 -25 67 -37 208 -44 166 -9 227 4 286 58 35
33 44 37 44 22 0 -29 -42 -93 -76 -114 -17 -12 -46 -20 -71 -20 -24 0 -43 -4
-43 -10 0 -5 20 -10 45 -10 25 0 45 -4 45 -10 0 -15 -36 -30 -74 -30 -25 0
-36 -4 -36 -15 0 -11 11 -15 38 -15 l37 0 -70 -46 c-39 -26 -71 -41 -73 -35
-2 7 -24 35 -49 64 -42 49 -43 52 -21 55 65 7 88 14 88 26 0 9 -16 11 -57 8
-41 -2 -75 3 -117 17 -66 23 -76 25 -76 12 0 -5 24 -23 53 -39 48 -27 157
-140 157 -162 0 -14 -79 -60 -103 -60 -24 0 -77 40 -77 58 0 5 -19 28 -41 51
-52 51 -82 53 -170 9 -123 -61 -189 -77 -129 -31 19 15 57 51 84 80 27 29 68
64 92 78 67 39 79 70 40 107 -13 13 -35 55 -50 94 -32 86 -51 104 -163 163
-103 55 -114 71 -47 71 47 0 49 -1 150 -102 81 -82 105 -112 114 -145 14 -55
35 -57 27 -3 -3 22 -1 40 4 40 13 0 11 93 -2 127 -6 15 -20 38 -31 50 -27 29
-19 32 102 36 52 1 106 4 120 5 24 1 24 1 -5 -15z m-521 -45 c46 -28 73 -49
65 -52 -8 -3 -117 -7 -244 -9 -157 -3 -246 -9 -281 -19 -82 -23 -97 -5 -41 50
59 57 157 81 317 79 l105 -2 79 -47z m228 43 c39 -9 84 -71 92 -127 3 -26 5
-49 3 -50 -1 -2 -44 37 -94 85 -51 49 -89 92 -86 95 8 7 48 6 85 -3z m589 -72
c20 -10 93 -109 86 -116 -3 -2 -42 14 -88 36 -70 34 -94 41 -145 41 -34 0 -76
3 -93 6 l-32 7 23 16 c13 8 43 19 68 22 52 8 157 1 181 -12z m-1101 -60 c0 -6
-9 -22 -20 -36 -11 -14 -20 -32 -20 -39 0 -19 -9 -18 -54 5 -20 11 -51 24 -68
30 -46 16 -25 29 67 39 44 5 83 10 88 11 4 0 7 -4 7 -10z m467 -11 c21 -22 73
-140 73 -163 0 -29 -183 -66 -246 -49 -21 6 -21 6 -3 42 21 39 26 146 9 157
-5 3 -10 13 -10 21 0 11 17 14 78 14 69 0 81 -3 99 -22z m-647 -44 c47 -21
106 -54 132 -75 69 -54 241 -108 369 -116 96 -6 124 -1 227 38 17 7 24 5 28
-6 8 -20 -11 -42 -59 -67 -44 -22 -102 -22 -342 2 -149 15 -174 24 -252 91
-38 32 -74 58 -81 59 -21 0 -12 -12 60 -77 83 -75 127 -89 333 -103 180 -14
215 -18 215 -30 0 -20 -105 -101 -158 -121 -70 -27 -177 -36 -240 -19 -98 26
-162 82 -148 127 10 31 -24 64 -75 74 -24 4 -56 11 -70 14 -22 6 -35 0 -68
-30 -23 -21 -41 -46 -41 -56 0 -17 -17 -35 -25 -27 -7 6 15 146 35 222 25 100
47 149 62 143 7 -3 51 -23 98 -43z m260 36 c11 -7 12 -14 4 -27 -15 -24 -33
-28 -40 -9 -7 18 1 46 13 46 4 0 15 -5 23 -10z m1023 -27 c50 -24 77 -43 77
-54 0 -27 -84 -97 -125 -105 -20 -3 -38 -5 -40 -2 -2 2 3 25 13 50 16 45 16
49 -5 97 -14 33 -17 51 -10 51 7 0 47 -16 90 -37z m-257 -4 c3 -6 -1 -18 -10
-27 -14 -14 -18 -15 -25 -3 -5 8 -7 20 -4 28 6 16 29 17 39 2z m-596 -14 c19
-23 4 -64 -27 -71 -33 -9 -57 6 -61 36 -7 42 60 68 88 35z m494 -32 c-8 -27
-13 -60 -10 -75 6 -29 -1 -33 -41 -22 -39 11 -27 57 30 122 31 34 37 27 21
-25z m241 -13 c0 -32 -2 -35 -30 -35 -24 0 -31 5 -33 23 -6 38 5 54 35 50 25
-3 28 -7 28 -38z m-887 -3 c4 -20 -25 -34 -40 -19 -15 15 -1 44 19 40 10 -2
19 -11 21 -21z m750 -34 c-2 -10 -10 -18 -18 -18 -8 0 -16 8 -18 18 -2 12 3
17 18 17 15 0 20 -5 18 -17z m316 -225 c-3 -5 -16 2 -29 14 -13 12 -21 26 -18
31 3 5 16 -1 29 -14 13 -12 21 -26 18 -31z m-1474 -53 c13 -14 22 -27 19 -28
-2 -2 -23 -9 -46 -14 l-43 -11 0 33 c0 50 33 59 70 20z m85 -95 c32 -33 29
-35 -30 -19 -22 6 -60 15 -85 19 -43 7 -44 7 -20 18 14 6 43 11 66 11 32 1 46
-5 69 -29z m873 -167 c23 -11 13 -12 -73 -7 -55 2 -116 7 -135 10 l-35 6 40
17 c22 9 56 26 75 39 l35 23 33 -38 c18 -21 45 -43 60 -50z m477 55 c-8 -19
-72 -61 -87 -56 -8 3 0 11 18 21 17 9 36 23 43 31 16 19 32 21 26 4z m-1363
-125 c167 -92 362 -184 412 -194 93 -18 100 -20 90 -27 -5 -4 -15 -19 -21 -34
-12 -26 -27 -32 -70 -31 -25 1 -12 -28 21 -48 19 -11 37 -27 40 -35 3 -8 10
-13 15 -10 16 10 85 -25 141 -72 30 -25 57 -47 59 -49 2 -1 -2 -9 -8 -17 -32
-38 -6 -113 58 -171 35 -32 68 -100 60 -123 -5 -13 -122 17 -213 53 -222 89
-412 243 -538 437 -28 42 -59 79 -70 82 -16 4 -19 10 -15 28 4 13 -7 57 -28
113 -18 49 -37 108 -41 130 -6 36 -5 39 8 27 9 -7 54 -34 100 -59z m712 -208
c9 -14 15 -25 14 -26 -26 -8 -51 -2 -59 13 -5 10 -17 18 -27 18 -15 0 -15 2
-2 10 26 17 57 11 74 -15z m653 -16 c-5 -39 -51 -119 -68 -119 -5 0 -28 14
-51 30 -47 35 -77 37 -134 11 l-42 -19 -36 44 -37 44 134 0 c123 0 137 2 178
24 24 14 48 25 53 25 5 1 6 -17 3 -40z m-797 1 c0 -13 -11 -13 -30 0 -12 8
-11 10 8 10 12 0 22 -4 22 -10z m393 -17 c38 -16 87 -64 87 -88 0 -16 -33 -30
-38 -16 -2 6 -11 11 -20 11 -13 0 -12 -3 4 -14 19 -15 19 -15 -3 -37 -22 -22
-23 -22 -43 -4 -21 19 -21 19 -15 -8 6 -22 1 -32 -25 -57 -30 -28 -37 -30
-114 -30 -81 0 -83 1 -151 46 -39 25 -100 63 -137 83 -37 20 -67 40 -68 46 -1
5 12 13 27 16 15 4 45 14 65 23 25 11 66 16 124 16 83 0 90 -2 165 -42 44 -23
79 -45 79 -50 0 -4 4 -8 10 -8 17 0 -1 27 -26 38 -35 16 -30 34 9 30 27 -2 33
-8 35 -30 3 -29 22 -39 22 -12 0 29 -21 54 -45 54 -27 0 -95 37 -95 52 0 13
104 0 153 -19z m-303 9 c0 -4 -9 -8 -20 -9 -11 -1 -20 2 -20 8 0 5 9 9 20 9
11 0 20 -4 20 -8z m-120 -11 c0 -10 -30 -24 -37 -17 -3 3 -2 9 2 15 8 13 35
15 35 2z m250 -1 c0 -5 -6 -10 -14 -10 -8 0 -18 5 -21 10 -3 6 3 10 14 10 12
0 21 -4 21 -10z m45 -30 c3 -5 2 -10 -4 -10 -5 0 -13 5 -16 10 -3 6 -2 10 4
10 5 0 13 -4 16 -10z m1048 -43 c-3 -5 -12 -2 -20 6 -9 8 -12 20 -8 27 5 8 11
6 20 -7 7 -10 11 -22 8 -26z m51 -49 c-7 -11 -34 3 -34 18 0 12 4 12 19 2 11
-7 18 -15 15 -20z m-1084 -132 c0 -11 -19 -15 -25 -6 -3 5 1 10 9 10 9 0 16
-2 16 -4z m-53 -21 c13 -9 27 -33 33 -54 10 -38 30 -54 82 -65 24 -5 27 -12
34 -63 6 -47 13 -64 48 -101 l41 -45 -94 7 c-52 4 -98 9 -103 12 -4 3 -8 15
-8 26 0 28 -44 103 -91 155 -53 58 -60 90 -25 120 32 27 53 29 83 8z m373 -24
c-15 -29 -26 -33 -41 -15 -10 13 -10 17 2 25 8 5 22 9 32 9 14 0 16 -4 7 -19z
m70 -5 c-1 -21 -66 -114 -74 -105 -24 24 30 134 60 122 8 -3 14 -10 14 -17z
m-113 -42 c14 -23 15 -33 5 -81 -14 -66 -26 -83 -61 -83 -41 1 -82 41 -91 89
l-7 41 61 29 c33 16 64 30 68 30 4 1 15 -11 25 -25z m-99 -166 c7 -7 12 -23
12 -37 l0 -24 -25 23 c-27 25 -33 50 -12 50 7 0 18 -5 25 -12z"/>
<path d="M1940 1216 c0 -3 12 -18 27 -33 18 -19 24 -22 20 -10 -4 10 -7 20 -7
22 0 3 -9 9 -20 15 -11 6 -20 9 -20 6z"/>
<path d="M1899 1173 c-13 -15 -12 -15 9 -4 23 12 28 21 13 21 -5 0 -15 -7 -22
-17z"/>
<path d="M2035 1160 c-3 -5 -1 -10 4 -10 6 0 11 5 11 10 0 6 -2 10 -4 10 -3 0
-8 -4 -11 -10z"/>
<path d="M1925 1083 c-5 -10 -9 -26 -10 -37 -2 -10 -10 -23 -18 -28 -28 -15
-47 -39 -47 -59 0 -15 7 -19 36 -19 27 0 35 4 31 14 -3 7 1 25 8 39 7 14 11
28 9 30 -3 2 1 16 7 31 9 18 9 30 2 37 -7 7 -13 5 -18 -8z"/>
<path d="M2153 1080 c2 -22 -2 -25 -28 -25 -31 0 -45 -25 -27 -48 5 -7 12 -24
16 -39 4 -17 12 -25 23 -24 22 4 29 26 8 26 -9 0 -13 5 -10 10 4 6 11 7 17 4
6 -4 8 1 4 14 -8 24 28 52 37 29 3 -6 6 -2 6 11 1 13 -5 22 -14 22 -9 0 -20
10 -25 23 -10 22 -10 22 -7 -3z"/>
<path d="M1950 1026 c0 -9 5 -16 10 -16 6 0 10 4 10 9 0 6 -4 13 -10 16 -5 3
-10 -1 -10 -9z"/>
<path d="M2211 994 c0 -11 3 -14 6 -6 3 7 2 16 -1 19 -3 4 -6 -2 -5 -13z"/>
<path d="M2144 855 c3 -8 1 -15 -4 -15 -6 0 -10 -7 -10 -15 0 -8 7 -15 16 -15
10 0 14 -6 11 -14 -3 -7 0 -19 6 -25 17 -17 26 -13 20 9 -4 13 3 26 18 39 l24
19 -30 12 c-16 6 -36 13 -44 15 -9 4 -11 0 -7 -10z"/>
<path d="M2121 774 c0 -11 3 -14 6 -6 3 7 2 16 -1 19 -3 4 -6 -2 -5 -13z"/>
<path d="M1772 738 l-3 -32 21 24 c11 13 20 28 19 34 0 6 -3 5 -6 -2 -3 -9 -9
-10 -17 -3 -9 7 -12 2 -14 -21z"/>
<path d="M2121 734 c0 -11 3 -14 6 -6 3 7 2 16 -1 19 -3 4 -6 -2 -5 -13z"/>
<path d="M1830 659 c0 -5 5 -7 10 -4 6 3 10 8 10 11 0 2 -4 4 -10 4 -5 0 -10
-5 -10 -11z"/>
<path d="M1823 613 c-17 -35 -16 -48 0 -35 10 9 23 62 14 62 -1 0 -8 -12 -14
-27z"/>
<path d="M1902 625 c4 -4 3 -16 -2 -25 -8 -15 -6 -17 11 -13 23 6 22 34 -1 41
-8 3 -12 1 -8 -3z"/>
<path d="M1922 480 c0 -19 2 -27 5 -17 2 9 2 25 0 35 -3 9 -5 1 -5 -18z"/>
<path d="M1795 480 c3 -5 13 -10 21 -10 8 0 14 5 14 10 0 6 -9 10 -21 10 -11
0 -17 -4 -14 -10z"/>
<path d="M185 700 c3 -5 8 -10 11 -10 2 0 4 5 4 10 0 6 -5 10 -11 10 -5 0 -7
-4 -4 -10z"/>
<path d="M500 460 c0 -5 5 -10 10 -10 6 0 10 5 10 10 0 6 -4 10 -10 10 -5 0
-10 -4 -10 -10z"/>
<path d="M780 426 c0 -9 5 -16 10 -16 6 0 10 4 10 9 0 6 -4 13 -10 16 -5 3
-10 -1 -10 -9z"/>
<path d="M680 400 c0 -5 5 -10 10 -10 6 0 10 5 10 10 0 6 -4 10 -10 10 -5 0
-10 -4 -10 -10z"/>
<path d="M832 369 c2 -6 8 -10 13 -10 5 0 11 4 13 10 2 6 -4 11 -13 11 -9 0
-15 -5 -13 -11z"/>
</g>
</svg>
